<svg width="33" height="31" viewBox="0 0 33 31" fill="none" xmlns="http://www.w3.org/2000/svg">
<path d="M10.5531 9.24287L1.24894 10.5918L1.08415 10.6254C0.834688 10.6916 0.607269 10.8228 0.425119 11.0057C0.24297 11.1886 0.112615 11.4165 0.0473673 11.6662C-0.0178805 11.9159 -0.0156836 12.1785 0.0537335 12.4271C0.123151 12.6757 0.257301 12.9014 0.442485 13.0812L7.1829 19.6422L5.59332 28.91L5.57436 29.0704C5.55909 29.3284 5.61266 29.5858 5.7296 29.8163C5.84653 30.0468 6.02263 30.2421 6.23985 30.3822C6.45707 30.5222 6.70761 30.602 6.96583 30.6134C7.22404 30.6248 7.48064 30.5674 7.70936 30.447L16.0306 26.072L24.3329 30.447L24.4787 30.5141C24.7194 30.6089 24.9811 30.638 25.2367 30.5984C25.4924 30.5587 25.7329 30.4517 25.9336 30.2885C26.1342 30.1252 26.2879 29.9115 26.3787 29.6692C26.4695 29.427 26.4943 29.1649 26.4504 28.91L24.8594 19.6422L31.6027 13.0797L31.7164 12.9558C31.8789 12.7557 31.9855 12.516 32.0252 12.2613C32.0649 12.0066 32.0364 11.7459 31.9426 11.5058C31.8488 11.2657 31.693 11.0548 31.4911 10.8945C31.2892 10.7342 31.0484 10.6302 30.7933 10.5933L21.4892 9.24287L17.33 0.813705C17.2096 0.569485 17.0233 0.363831 16.7921 0.220024C16.561 0.0762174 16.2941 0 16.0219 0C15.7496 0 15.4828 0.0762174 15.2516 0.220024C15.0204 0.363831 14.8341 0.569485 14.7137 0.813705L10.5531 9.24287Z" fill="#F49612"/>
</svg>
