<svg width="195" height="60" viewBox="0 0 195 60" fill="none" xmlns="http://www.w3.org/2000/svg">
<g clip-path="url(#clip0_10_11275)">
<path fill-rule="evenodd" clip-rule="evenodd" d="M193.471 3.62856C194.49 4.66739 195 5.92141 195 7.39804C195 8.87467 194.49 10.1287 193.471 11.1675C192.452 12.2064 191.221 12.7258 189.772 12.7258C188.324 12.7258 187.093 12.2063 186.074 11.1601C185.055 10.1138 184.545 8.85983 184.545 7.39804C184.545 5.93625 185.055 4.66739 186.074 3.62856C187.093 2.58973 188.324 2.07031 189.772 2.07031C191.221 2.07031 192.452 2.58973 193.471 3.62856ZM193.012 10.7C193.908 9.77993 194.359 8.68174 194.359 7.39804C194.359 6.11434 193.908 5.00872 193.012 4.09604C192.117 3.18335 191.032 2.72329 189.772 2.72329C188.513 2.72329 187.428 3.18335 186.533 4.09604C185.637 5.00872 185.186 6.11434 185.186 7.39804C185.186 8.68174 185.637 9.77251 186.533 10.6926C187.428 11.6127 188.513 12.0728 189.772 12.0728C191.032 12.0728 192.117 11.6127 193.012 10.7ZM191.622 8.98597C191.178 9.59443 190.602 9.89866 189.896 9.89866C189.248 9.89866 188.702 9.65379 188.251 9.17147C187.799 8.68916 187.574 8.08812 187.574 7.3832C187.574 6.67828 187.799 6.06982 188.244 5.60234C188.688 5.13487 189.241 4.89742 189.896 4.89742C190.602 4.89742 191.178 5.19423 191.607 5.79527L192.168 5.22391C191.585 4.52641 190.821 4.17024 189.896 4.17024C189.015 4.17024 188.273 4.47447 187.661 5.08293C187.049 5.69139 186.744 6.45567 186.744 7.3832C186.744 8.31073 187.049 9.08243 187.661 9.69831C188.273 10.3142 189.015 10.6258 189.896 10.6258C190.828 10.6258 191.593 10.2622 192.197 9.54249L191.622 8.98597Z" fill="white"/>
<path fill-rule="evenodd" clip-rule="evenodd" d="M16.6001 57.9298H0V2.07031H51.1326L45.8031 16.8069H16.6001V22.335H43.8009L38.4641 37.079H16.6001V57.9298Z" fill="white"/>
<path fill-rule="evenodd" clip-rule="evenodd" d="M141.479 2.07031L148.942 34.3409L160.773 2.07031H179.594L159.375 57.9298H138.509L132.189 31.447L125.877 57.9298H105.003L84.7842 2.07031H103.605L115.436 34.3409L122.906 2.07031H141.479Z" fill="white"/>
<path fill-rule="evenodd" clip-rule="evenodd" d="M98.6099 57.9298H79.7892L77.8161 51.3926H58.0926L56.1195 57.9298H37.2988L57.5247 2.07031H78.3986L98.6172 57.9298H98.6099ZM73.3822 34.9271L68.6278 18.892H67.2809L62.5266 34.9271H73.3749H73.3822ZM81.3473 55.7705H95.5739L76.9206 4.22218H58.9881L40.3349 55.7705H54.5615L56.5345 49.2333H79.3669L81.34 55.7705H81.3473ZM70.6592 18.2761L70.2078 16.7401H65.7228L59.6944 37.0864H76.2362L70.6592 18.2761Z" fill="white"/>
<path d="M60.3355 0H53.8047V6.65595H60.3355V0Z" fill="white"/>
<path d="M82.316 0H75.7852V6.65595H82.316V0Z" fill="white"/>
<path d="M43.1314 53.3438H36.6006V59.9997H43.1314V53.3438Z" fill="white"/>
<path d="M99.3238 53.3438H92.793V59.9997H99.3238V53.3438Z" fill="white"/>
</g>
<defs>
<clipPath id="clip0_10_11275">
<rect width="195" height="60" fill="white"/>
</clipPath>
</defs>
</svg>
