<svg width="21" height="30" viewBox="0 0 21 30" fill="none" xmlns="http://www.w3.org/2000/svg">
<path d="M13.125 0C15.0589 0 16.9135 0.768227 18.281 2.13568C19.6484 3.50313 20.4167 5.3578 20.4167 7.29167V21.875C20.4167 23.8089 19.6484 25.6635 18.281 27.031C16.9135 28.3984 15.0589 29.1667 13.125 29.1667H7.29167C5.3578 29.1667 3.50313 28.3984 2.13568 27.031C0.768227 25.6635 0 23.8089 0 21.875V7.29167C0 5.3578 0.768227 3.50313 2.13568 2.13568C3.50313 0.768227 5.3578 0 7.29167 0H13.125ZM10.2083 5.83333C9.82156 5.83333 9.45063 5.98698 9.17714 6.26047C8.90365 6.53396 8.75 6.90489 8.75 7.29167V13.125L8.76021 13.2956C8.80411 13.6647 8.98729 14.0031 9.27233 14.2417C9.55736 14.4803 9.92274 14.601 10.2938 14.5792C10.6649 14.5574 11.0136 14.3948 11.2688 14.1245C11.5239 13.8542 11.6663 13.4967 11.6667 13.125V7.29167L11.6565 7.12104C11.6147 6.7663 11.4441 6.43923 11.1772 6.20188C10.9103 5.96452 10.5655 5.83338 10.2083 5.83333Z" fill="#F49612"/>
</svg>
