<svg width="21" height="30" viewBox="0 0 21 30" fill="none" xmlns="http://www.w3.org/2000/svg">
<path d="M10.2087 0C11.6508 0 13.0606 0.427649 14.2597 1.22887C15.4588 2.03009 16.3934 3.16889 16.9453 4.50127C17.4972 5.83364 17.6416 7.29976 17.3602 8.7142C17.0789 10.1286 16.3844 11.4279 15.3646 12.4477C14.3449 13.4674 13.0456 14.1619 11.6312 14.4432C10.2167 14.7246 8.75064 14.5802 7.41826 14.0283C6.08588 13.4764 4.94708 12.5418 4.14586 11.3427C3.34464 10.1436 2.91699 8.73382 2.91699 7.29167L2.92428 6.97521C3.00583 5.09797 3.80892 3.32468 5.16607 2.02513C6.52322 0.725581 8.32965 0.000108562 10.2087 0Z" fill="#F49612"/>
<path d="M13.125 17.5C15.0589 17.5 16.9135 18.2682 18.281 19.6357C19.6484 21.0031 20.4167 22.8578 20.4167 24.7917V26.25C20.4167 27.0235 20.1094 27.7654 19.5624 28.3124C19.0154 28.8594 18.2735 29.1667 17.5 29.1667H2.91667C2.14312 29.1667 1.40125 28.8594 0.854272 28.3124C0.307291 27.7654 0 27.0235 0 26.25V24.7917C0 22.8578 0.768227 21.0031 2.13568 19.6357C3.50313 18.2682 5.3578 17.5 7.29167 17.5H13.125Z" fill="#F49612"/>
</svg>
