<svg width="30" height="30" viewBox="0 0 30 30" fill="none" xmlns="http://www.w3.org/2000/svg">
<path d="M21.875 1.95401C24.0746 3.22401 25.9043 5.04644 27.1831 7.24091C28.4618 9.43537 29.1453 11.9258 29.1658 14.4655C29.1863 17.0053 28.5432 19.5064 27.3 21.7213C26.0569 23.9361 24.2568 25.7879 22.0781 27.0932C19.8993 28.3986 17.4174 29.1123 14.8781 29.1637C12.3387 29.2151 9.82997 28.6024 7.60018 27.3862C5.3704 26.1701 3.4969 24.3927 2.16514 22.23C0.833382 20.0672 0.0895552 17.5942 0.00729183 15.0557L0 14.5832L0.00729183 14.1107C0.088963 11.5921 0.82184 9.1377 2.13447 6.98671C3.44711 4.83571 5.2947 3.06154 7.49713 1.83717C9.69956 0.612799 12.1817 -0.0199949 14.7015 0.000481608C17.2213 0.0209581 19.6928 0.694006 21.875 1.95401ZM14.5833 5.83318C14.2261 5.83322 13.8814 5.96436 13.6145 6.20172C13.3475 6.43908 13.177 6.76614 13.1352 7.12088L13.125 7.29151V14.5832L13.1381 14.7742C13.1714 15.0272 13.2704 15.2671 13.4254 15.4698L13.5523 15.6157L17.9273 19.9907L18.0644 20.1103C18.3201 20.3087 18.6346 20.4164 18.9583 20.4164C19.282 20.4164 19.5965 20.3087 19.8523 20.1103L19.9894 19.9892L20.1104 19.8521C20.3088 19.5964 20.4165 19.2819 20.4165 18.9582C20.4165 18.6345 20.3088 18.32 20.1104 18.0642L19.9894 17.9271L16.0417 13.978V7.29151L16.0315 7.12088C15.9897 6.76614 15.8191 6.43908 15.5522 6.20172C15.2853 5.96436 14.9405 5.83322 14.5833 5.83318Z" fill="#F49612"/>
</svg>
